<svg width="104" height="104" viewBox="0 0 104 104" fill="none" xmlns="http://www.w3.org/2000/svg">
<path d="M35 39.5L52.75 44.5L77.25 40.1L59.45 35.6L35 39.5Z" fill="#F8F8F8" stroke="#555555" stroke-width="1.5" stroke-miterlimit="10" stroke-linejoin="round"/>
<path d="M35 39.5L52.75 44.5L51.6 74L34.5 64L35 39.5Z" fill="#F8F8F8" stroke="#555555" stroke-width="1.5" stroke-miterlimit="10" stroke-linejoin="round"/>
<path d="M52.75 44.5L77.25 40.1L76 67L51.6 74L52.75 44.5Z" fill="#F8F8F8" stroke="#555555" stroke-width="1.5" stroke-miterlimit="10" stroke-linejoin="round"/>
<path d="M55.5 47.6L74.6 44.1L73.6 64.3L54.6 69.8L55.5 47.6Z" fill="#EDEDED" stroke="#555555" stroke-width="1.5" stroke-miterlimit="10" stroke-linejoin="round"/>
<path d="M55.5 47.6L74.6 44.1L86.6 47.5L67.5 51L55.5 47.6Z" fill="#F8F8F8" stroke="#555555" stroke-width="1.5" stroke-miterlimit="10" stroke-linejoin="round"/>
<path d="M67.5 51L86.6 47.5L85.6 71.6L66.6 77L67.5 51Z" fill="#F8F8F8" stroke="#555555" stroke-width="1.5" stroke-miterlimit="10" stroke-linejoin="round"/>
<path d="M55.5 47.6L67.5 51L66.6 77L54.6 69.8L55.5 47.6Z" fill="#F8F8F8" stroke="#555555" stroke-width="1.5" stroke-miterlimit="10" stroke-linejoin="round"/>
</svg>
